<?xml version="1.0" standalone="no"?>
<!DOCTYPE svg PUBLIC "-//W3C//DTD SVG 20010904//EN"
 "http://www.w3.org/TR/2001/REC-SVG-20010904/DTD/svg10.dtd">
<svg version="1.0" xmlns="http://www.w3.org/2000/svg"
 width="1097.000000pt" height="1097.000000pt" viewBox="0 0 1097.000000 1097.000000"
 preserveAspectRatio="xMidYMid meet">
<metadata>
Created by potrace 1.14, written by Peter Selinger 2001-2017
</metadata>
<g transform="translate(0.000000,1097.000000) scale(0.100000,-0.100000)"
fill="#000000" stroke="none">
<path d="M5640 10963 c-265 -38 -389 -79 -641 -211 -295 -153 -517 -334 -640
-522 -113 -171 -154 -368 -124 -590 16 -123 86 -318 189 -530 30 -63 52 -117
48 -120 -14 -10 -39 -55 -51 -91 -23 -72 -8 -245 28 -317 5 -10 15 -30 22 -47
23 -49 110 -129 172 -159 74 -35 168 -44 221 -22 28 12 38 12 41 3 2 -7 11
-37 20 -67 50 -168 79 -231 147 -312 21 -26 59 -93 83 -148 l43 -101 -36 -18
c-53 -27 -107 -85 -136 -145 -14 -29 -26 -58 -26 -64 0 -33 -212 -168 -376
-241 -65 -29 -131 -59 -146 -67 -15 -8 -30 -15 -33 -14 -9 1 -68 -32 -90 -49
-18 -14 -20 -28 -20 -136 -1 -111 -9 -242 -20 -323 -3 -21 -22 -54 -53 -90
-27 -31 -54 -67 -61 -79 -16 -31 -14 -77 6 -117 l16 -35 -45 -60 -45 -61 -35
38 c-74 82 -235 314 -303 437 -22 39 -53 85 -70 102 -29 30 -93 65 -112 62 -5
-1 -16 -1 -26 0 -18 1 -18 3 1 34 31 49 142 273 147 294 2 10 8 32 13 49 21
67 7 125 -61 266 -103 214 -137 347 -133 523 2 55 -1 110 -5 122 -11 31 -45
46 -101 44 -53 -1 -50 -7 -50 91 0 53 2 59 38 90 88 77 131 132 174 224 44 94
59 164 58 278 -1 314 -211 536 -508 537 -162 1 -274 -40 -379 -137 -225 -208
-203 -629 46 -889 33 -34 38 -47 41 -92 2 -29 0 -53 -5 -53 -4 -1 -44 -2 -88
-4 -175 -6 -226 -85 -164 -251 27 -73 29 -155 5 -253 -15 -58 -24 -76 -48 -94
-17 -11 -49 -42 -72 -66 -22 -25 -68 -75 -101 -110 -101 -108 -112 -133 -86
-185 18 -35 18 -35 -5 -48 -31 -16 -42 -54 -48 -164 -3 -49 -8 -112 -12 -139
-13 -108 8 -133 137 -161 102 -22 117 -28 279 -103 111 -51 205 -88 262 -103
l45 -12 -20 -34 c-34 -59 -26 -92 81 -313 54 -113 115 -239 134 -280 20 -41
75 -155 122 -253 47 -98 86 -181 86 -184 0 -3 25 -44 56 -91 49 -75 175 -213
239 -262 161 -122 402 -213 545 -206 220 12 514 239 772 598 l16 23 12 -30
c15 -38 17 -111 5 -200 -19 -154 -4 -241 54 -302 28 -29 27 -68 -5 -195 -42
-168 -42 -164 4 -212 35 -36 41 -49 51 -116 13 -86 16 -216 6 -275 -4 -22 -20
-62 -37 -88 -36 -57 -45 -117 -26 -173 8 -23 14 -70 13 -105 -4 -96 -16 -339
-20 -379 -10 -107 -19 -404 -20 -685 -1 -280 -7 -404 -20 -425 -2 -3 -6 -26
-10 -50 -3 -25 -10 -67 -15 -95 -18 -99 -22 -152 -21 -246 l0 -96 -63 -46
c-73 -53 -126 -110 -126 -134 0 -8 10 -31 21 -50 37 -59 31 -99 -29 -191 -61
-92 -86 -160 -72 -197 9 -23 4 -27 -99 -79 -130 -65 -433 -179 -506 -190 -19
-3 -113 -41 -202 -83 -53 -24 -111 -87 -123 -133 -6 -22 -12 -68 -14 -100 -3
-49 1 -65 20 -94 44 -64 191 -133 374 -176 129 -30 182 -35 345 -35 179 1 237
9 373 50 42 12 131 44 197 70 207 82 192 79 445 76 63 -1 126 1 140 4 14 2 37
7 51 10 52 11 81 61 81 139 0 36 4 45 28 60 49 29 108 90 125 128 20 50 19
120 -5 198 -29 94 -27 114 16 147 90 69 98 79 98 119 -1 47 -25 102 -76 171
l-38 52 17 38 c10 21 51 92 92 158 41 66 85 143 98 172 52 112 60 253 22 393
-12 44 -11 46 19 76 36 37 49 89 35 153 -9 44 -7 50 41 141 27 52 64 119 83
148 18 29 33 55 33 57 0 10 131 196 160 229 17 19 37 42 44 52 12 16 14 15 25
-18 6 -19 13 -44 15 -54 2 -10 23 -95 46 -187 23 -93 43 -176 45 -185 2 -10
24 -107 50 -217 26 -110 49 -211 51 -225 2 -14 13 -65 24 -115 11 -49 22 -101
24 -115 3 -14 17 -83 31 -155 14 -71 28 -143 30 -160 3 -16 9 -52 14 -80 6
-27 13 -67 16 -87 12 -89 16 -114 20 -128 2 -8 -14 -35 -36 -59 -46 -50 -66
-86 -72 -127 -6 -38 6 -59 65 -118 56 -55 56 -56 7 -168 -36 -83 -45 -143 -29
-194 16 -49 70 -117 124 -156 114 -81 194 -180 270 -334 91 -182 216 -281 406
-319 19 -4 118 -9 220 -11 147 -2 206 1 286 15 116 22 237 53 291 77 74 33
112 105 113 218 1 216 -148 472 -373 640 -55 40 -59 46 -62 87 -1 26 -20 81
-44 132 -42 92 -50 137 -28 173 46 79 49 87 42 120 -4 23 -30 59 -85 117 -44
46 -78 86 -75 88 4 5 8 28 20 112 4 27 9 59 12 70 12 53 15 315 3 372 -6 33
-13 71 -16 85 -3 14 -23 77 -45 140 -67 194 -79 242 -85 335 -4 65 -2 107 9
150 23 87 54 246 63 323 34 289 20 501 -48 749 -16 62 -30 116 -29 120 0 4 15
9 33 11 58 7 183 51 228 81 115 77 167 150 222 311 59 174 63 202 63 450 l-1
196 54 24 c29 13 73 42 96 66 75 75 99 150 99 309 0 218 -42 382 -117 457 -21
21 -31 42 -33 66 -5 73 -87 191 -192 273 l-33 26 17 49 c26 77 23 214 -11 424
-16 99 -69 369 -84 430 -5 19 -12 49 -14 66 -3 17 -13 49 -22 70 -9 21 -29 85
-45 142 -38 134 -80 214 -149 283 -54 55 -78 67 -195 103 -90 27 -188 36 -234
21 -38 -12 -23 15 47 85 126 127 318 224 484 245 16 2 44 7 61 11 18 4 98 7
179 6 l148 0 1 42 c1 22 2 59 3 80 1 44 7 41 -104 52 -98 11 -269 5 -350 -11
-8 -2 -29 -6 -46 -9 -105 -20 -254 -79 -349 -140 l-57 -37 22 38 c179 298 512
487 1011 573 63 11 117 20 122 20 4 0 7 29 7 65 0 69 1 67 -55 68 -32 0 -209
-13 -241 -18 -53 -9 -89 -15 -114 -20 -14 -3 -37 -7 -51 -10 -14 -3 -66 -16
-115 -31 -221 -64 -415 -162 -569 -288 l-49 -41 28 50 c80 139 203 246 375
326 l63 29 -38 43 c-39 43 -39 43 -76 31 -75 -26 -245 -113 -337 -174 -107
-70 -258 -216 -320 -308 -24 -35 -58 -98 -78 -140 -19 -42 -38 -84 -43 -93
-10 -19 -57 -189 -64 -233 -3 -16 -8 -50 -12 -75 -4 -25 -8 -55 -11 -66 -2
-11 -6 -71 -9 -133 l-6 -112 -42 -45 c-23 -24 -53 -66 -65 -94 l-23 -49 -72
19 c-56 15 -76 26 -96 52 -46 58 -91 96 -138 113 -26 10 -48 18 -50 19 -4 4
78 187 101 225 12 19 44 67 73 105 54 72 105 168 119 220 5 17 9 35 11 40 26
96 26 252 1 400 -9 50 -19 108 -22 130 -3 23 -8 52 -10 65 -11 52 -13 238 -3
300 15 100 12 228 -7 291 -5 14 2 16 41 14 61 -4 170 -15 197 -21 37 -7 112
-7 135 0 32 10 37 48 17 124 -61 232 -197 417 -371 505 l-51 26 -2 58 c-10
316 -290 568 -721 648 -39 8 -351 14 -390 8z m-2412 -3173 c41 -72 24 -198
-39 -293 -29 -45 -34 -48 -63 -41 -41 9 -96 37 -135 69 l-31 27 20 28 c34 47
48 103 47 178 l-2 72 90 0 90 0 23 -40z m4368 -216 c21 -27 29 -50 32 -95 4
-54 3 -59 -16 -59 -12 0 -43 12 -69 26 -60 33 -73 44 -73 58 0 14 78 106 90
106 5 0 21 -16 36 -36z m290 -2357 c-3 -32 -14 -77 -24 -100 -19 -42 -68 -107
-81 -107 -21 0 -43 65 -56 165 -2 17 -6 44 -9 61 -3 17 -8 46 -10 65 -3 19 -7
46 -10 59 -19 83 -22 84 91 -4 l105 -81 -6 -58z"/>
</g>
</svg>
